<?xml version="1.0" ?><svg id="Layer_1" style="enable-background:new 0 0 246.666 236.901;" version="1.1" viewBox="0 0 246.666 236.901" xml:space="preserve" xmlns="http://www.w3.org/2000/svg" xmlns:xlink="http://www.w3.org/1999/xlink"><g><path d="M83.345,96.764h-9.426c1.303,2.226,2.655,4.431,3.961,6.463C79.702,100.68,81.569,98.541,83.345,96.764z"/><path d="M46.753,97.406l-0.03-0.062c-0.102-0.191-0.196-0.385-0.288-0.581H34.823c0.419,3.233,2.795,6.015,6.16,6.778   c0.168,0.023,4.387,1,10.186,1.837c-2.141-3.742-3.752-6.732-4.388-7.926L46.753,97.406z"/><path d="M96.287,73.31v10.707h3.486c-1.875-3.632-2.941-7.747-2.941-12.108c0-8.666,4.182-16.373,10.634-21.21h-3.451   c-0.496,0-0.979,0.051-1.45,0.141c-1.524-0.256-3.137-0.075-4.647,0.617c-0.684,0.319-5.968,2.827-11.76,9.088   c-4.742,5.103-9.735,12.828-12.525,23.473h16.737C92.031,79.45,94.169,75.974,96.287,73.31z"/><path d="M199.941,97.344l-0.095,0.177c-0.73,1.366-2.307,4.28-4.352,7.857c5.799-0.837,10.018-1.813,10.188-1.837   c3.364-0.764,5.74-3.545,6.159-6.778H200.23C200.138,96.959,200.043,97.153,199.941,97.344z"/><path d="M172.745,96.764h-9.426c1.777,1.775,3.643,3.914,5.465,6.461C170.155,101.081,171.508,98.857,172.745,96.764z"/><path d="M149.834,71.909c0,4.361-1.065,8.476-2.94,12.108h3.485V73.309c2.116,2.671,4.255,6.143,5.916,10.708h16.734   c-2.79-10.646-7.783-18.371-12.523-23.473c-5.793-6.261-11.078-8.769-11.76-9.088c-1.511-0.691-3.124-0.873-4.647-0.618   c-0.47-0.089-0.952-0.14-1.448-0.14h-3.45C145.652,55.536,149.834,63.243,149.834,71.909z"/><path d="M86.533,223.321c-0.671,6.797,4.295,12.848,11.088,13.519c6.796,0.671,12.85-4.291,13.521-11.088l3.161-32.012H89.454   L86.533,223.321z"/><path d="M135.524,225.751c0.671,6.797,6.725,11.759,13.521,11.088c6.793-0.671,11.759-6.722,11.088-13.519l-2.921-29.582h-24.849   L135.524,225.751z"/><circle cx="123.333" cy="22.5" r="22.5"/><path d="M127.084,177.498c-1.286-0.179-2.542-0.512-3.751-0.996c-1.208,0.484-2.467,0.817-3.756,0.996l-33.128,4.629l-1.03,7.612   h75.824l-1.03-7.612L127.084,177.498z"/><path d="M7.375,103.389c0,0.718,0.582,1.3,1.3,1.3h3.9c0.136,0,0.26-0.039,0.383-0.078v5.778c0,1.104,0.896,2,2,2h6   c1.105,0,2-0.896,2-2V92.764h26.448c0.119,0.922,0.393,1.839,0.853,2.711c0.051,0.093,4.278,8.112,9.383,16.326   c2.564,4.119,5.317,8.268,8.081,11.696c1.401,1.722,2.776,3.267,4.419,4.667c0.834,0.699,1.737,1.375,2.929,2   c1.188,0.599,2.737,1.231,4.911,1.252c0.06,0.001,0.121,0.002,0.183,0.002c1.991,0,4.424-0.873,5.994-2.307   c1.656-1.458,2.465-3.076,2.958-4.425c2.055-5.708,4.636-9.681,7.171-12.514v39.723c0,0.027,0.004,0.053,0.004,0.08l-25.987,3.63   c-5.423,0.759-9.71,5.064-10.442,10.489l-7.669,56.667c-0.908,6.705,3.793,12.875,10.499,13.783   c0.557,0.075,1.11,0.112,1.657,0.112c6.035,0,11.293-4.463,12.123-10.608l6.421-47.462l36.135-5.048   c1.563-0.219,3.009-0.732,4.306-1.462c1.297,0.73,2.742,1.244,4.306,1.462l36.132,5.048l6.422,47.462   c0.832,6.145,6.089,10.609,12.124,10.609c0.547,0,1.1-0.037,1.657-0.112c6.705-0.907,11.404-7.078,10.499-13.783l-7.668-56.665   c-0.734-5.426-5.022-9.733-10.443-10.49l-25.986-3.63c0-0.028,0.004-0.054,0.004-0.082v-25.076v-14.642   c2.534,2.833,5.116,6.798,7.169,12.502c0.487,1.351,1.294,2.968,2.949,4.426c1.569,1.437,4.005,2.312,5.998,2.312   c0.063,0,0.124-0.001,0.185-0.003c2.176-0.019,3.723-0.651,4.911-1.252c2.199-1.179,3.553-2.492,4.954-3.922   c2.375-2.501,4.593-5.517,6.825-8.796c6.608-9.772,12.96-21.841,13.035-21.97c0.46-0.871,0.733-1.788,0.852-2.711h26.452v17.625   c0,1.104,0.896,2,2,2h6c1.105,0,2-0.896,2-2v-5.777c0.123,0.038,0.247,0.077,0.383,0.077h3.9c0.718,0,1.3-0.582,1.3-1.3V92.764   h7.374v-4.75h-7.374V77.389c0-0.718-0.582-1.3-1.3-1.3h-3.9c-0.136,0-0.26,0.039-0.383,0.078v-5.778c0-1.104-0.895-2-2-2h-6   c-1.104,0-2,0.896-2,2v17.625h-27.301c-0.726-1.38-1.858-2.565-3.342-3.347c-3.906-2.065-8.745-0.57-10.808,3.336   c0,0-0.006,0.01-0.006,0.011h-40.215c-4.533,5.258-11.235,8.597-18.706,8.597c-7.47,0-14.171-3.339-18.704-8.597H64.413   c0-0.002-0.005-0.01-0.005-0.01c-2.063-3.908-6.904-5.401-10.809-3.338c-1.483,0.783-2.617,1.968-3.343,3.349H22.958V70.389   c0-1.104-0.895-2-2-2h-6c-1.104,0-2,0.896-2,2v5.777c-0.123-0.039-0.247-0.077-0.383-0.077h-3.9c-0.718,0-1.3,0.582-1.3,1.3v10.625   H0v4.75h7.375V103.389z M179.653,92.764c-2.027,3.624-4.996,8.765-8.016,13.415c-0.993,1.537-1.998,3.022-2.955,4.361   c-3.936-7.084-8.735-11.971-13.038-15.123c-1.443-1.063-2.822-1.935-4.096-2.654H179.653z M95.114,92.764   c-1.272,0.719-2.651,1.592-4.094,2.655c-4.305,3.15-9.105,8.037-13.04,15.123c-2.461-3.453-5.256-7.898-7.561-11.835   c-1.285-2.182-2.452-4.231-3.409-5.942H95.114z"/><circle cx="123.333" cy="71.91" r="22.5"/></g></svg>